<svg width="20" height="20" viewBox="0 0 20 20" fill="none" xmlns="http://www.w3.org/2000/svg">
<mask id="mask0_1167_4069" style="mask-type:alpha" maskUnits="userSpaceOnUse" x="1" y="1" width="18" height="18">
<path fill-rule="evenodd" clip-rule="evenodd" d="M17.9847 2.01543C18.4205 2.45128 18.4478 3.14102 18.0664 3.6086L17.9847 3.69902L11.6834 10.0001L17.9847 16.3011C18.4496 16.7661 18.4496 17.5198 17.9847 17.9847C17.5488 18.4206 16.8591 18.4478 16.3915 18.0665L16.3011 17.9847L10 11.6834L3.69896 17.9847C3.23405 18.4496 2.48028 18.4496 2.01537 17.9847C1.57952 17.5489 1.55228 16.8591 1.93365 16.3916L2.01537 16.3011L8.31669 10.0001L2.01537 3.69902C1.55046 3.23411 1.55046 2.48034 2.01537 2.01543C2.45122 1.57958 3.14095 1.55234 3.60854 1.93371L3.69896 2.01543L10 8.31675L16.3011 2.01543C16.766 1.55052 17.5198 1.55052 17.9847 2.01543Z" fill="#24262C"/>
</mask>
<g mask="url(#mask0_1167_4069)">
<path d="M-85.7937 90C-99.1271 90 -110.86 85.7333 -120.994 77.2C-130.594 68.1333 -135.394 54 -135.394 34.8C-135.394 15.6 -130.594 1.46666 -120.994 -7.60002C-110.86 -16.6667 -99.1271 -21.2 -85.7937 -21.2H128.606C141.94 -21.2 153.406 -16.6667 163.006 -7.60002C173.14 0.933317 178.206 14.8 178.206 34C178.206 53.2 173.14 67.3333 163.006 76.4C153.406 85.4667 141.94 90 128.606 90H-85.7937Z" fill="white"/>
</g>
</svg>
