<svg width="22" height="22" viewBox="0 0 22 22" fill="none" xmlns="http://www.w3.org/2000/svg">
<mask id="mask0_972_28545" style="mask-type:alpha" maskUnits="userSpaceOnUse" x="0" y="5" width="22" height="12">
<path fill-rule="evenodd" clip-rule="evenodd" d="M11.0001 5.04169C15.3712 5.04169 19.1676 7.45582 21.0834 11.0001C19.1676 14.5442 15.3712 16.9584 11.0001 16.9584C6.629 16.9584 2.83267 14.5442 0.916748 11.0001C2.83267 7.45582 6.629 5.04169 11.0001 5.04169ZM11.0001 7.33335C8.97504 7.33335 7.33342 8.97498 7.33342 11C7.33342 13.0251 8.97504 14.6667 11.0001 14.6667C13.0251 14.6667 14.6667 13.0251 14.6667 11C14.6667 8.97498 13.0251 7.33335 11.0001 7.33335ZM11.0001 9.16669C12.0126 9.16669 12.8334 9.9875 12.8334 11C12.8334 12.0125 12.0126 12.8334 11.0001 12.8334C9.98756 12.8334 9.16675 12.0125 9.16675 11C9.16675 9.9875 9.98756 9.16669 11.0001 9.16669Z" fill="white"/>
</mask>
<g mask="url(#mask0_972_28545)">
<path d="M-84.7937 91C-98.1271 91 -109.86 86.7333 -119.994 78.2C-129.594 69.1333 -134.394 55 -134.394 35.8C-134.394 16.6 -129.594 2.46666 -119.994 -6.60002C-109.86 -15.6667 -98.1271 -20.2 -84.7937 -20.2H129.606C142.94 -20.2 154.406 -15.6667 164.006 -6.60002C174.14 1.93332 179.206 15.8 179.206 35C179.206 54.2 174.14 68.3333 164.006 77.4C154.406 86.4667 142.94 91 129.606 91H-84.7937Z" fill="white"/>
</g>
</svg>
