<svg width="24" height="24" viewBox="0 0 24 24" fill="none" xmlns="http://www.w3.org/2000/svg">
<mask id="mask0_1264_1384" style="mask-type:alpha" maskUnits="userSpaceOnUse" x="2" y="1" width="20" height="22">
<path fill-rule="evenodd" clip-rule="evenodd" d="M12 10.5C12.5409 10.5 13.0129 10.8524 13.1727 11.3593L13.204 11.479L15.187 21H16C16.5523 21 17 21.4477 17 22V23H7V22C7 21.4477 7.44772 21 8 21H8.812L10.796 11.479C10.9149 10.9087 11.4175 10.5 12 10.5ZM13.5 1C13.7761 1 14 1.22386 14 1.5L14.0009 2.22322C15.8517 2.64339 17.4858 3.63397 18.7086 5.00034L21.5 5C21.7761 5 22 5.22386 22 5.5V8.5C22 8.77614 21.7761 9 21.5 9L20.777 9.00008C20.9229 9.64328 21 10.3126 21 11C21 12.0521 20.8195 13.0621 20.4877 14.0006L21.5 14C21.7761 14 22 14.2239 22 14.5V17.5C22 17.7761 21.7761 18 21.5 18H18.5C18.2868 18 18.1048 17.8666 18.0329 17.6786C17.3775 18.2713 16.6332 18.7693 15.823 19.15L15.6126 18.1398C16.5227 17.6784 17.3326 17.0481 18.0013 16.2902L18 15.279L14.577 13.173L14.297 11.825L18.1176 14.1779C18.2093 14.0691 18.3466 14 18.5 14L19.4181 14.001C19.7933 13.0743 20 12.0613 20 11C20 10.3096 19.9126 9.63969 19.7481 9.00064L18.5 9C18.2239 9 18 8.77614 18 8.5V7.894L13.8322 10.4586C13.6307 10.1684 13.3631 9.93054 13.0533 9.76432L18 6.72L18.0013 5.7098C16.959 4.52834 15.5733 3.65705 14.0004 3.25213L14 4.5C14 4.77614 13.7761 5 13.5 5H12.5L12.5005 9.55665C12.339 9.51952 12.1714 9.5 12 9.5C11.8289 9.5 11.6617 9.51944 11.5005 9.55642L11.5 5H10.5C10.2239 5 10 4.77614 10 4.5L10.0006 3.25187C8.42773 3.65657 7.042 4.5276 5.9996 5.7088L6 6.72L10.9467 9.76432C10.6365 9.93073 10.3687 10.169 10.1671 10.4596L6 7.895V8.5C6 8.77614 5.77614 9 5.5 9L4.25187 9.00064C4.08745 9.63969 4 10.3096 4 11C4 12.0613 4.20665 13.0743 4.58191 14.001L5.5 14C5.65341 14 5.79069 14.0691 5.88241 14.1779L9.702 11.827L9.421 13.174L6 15.279L5.9996 16.2912C6.66807 17.0487 7.47773 17.6786 8.38741 18.1398L8.17703 19.15C7.36677 18.7693 6.62253 18.2713 5.96619 17.6779C5.89524 17.8666 5.7132 18 5.5 18H2.5C2.22386 18 2 17.7761 2 17.5V14.5C2 14.2239 2.22386 14 2.5 14L3.51232 14.0006C3.18054 13.0621 3 12.0521 3 11C3 10.3126 3.07705 9.64328 3.223 9.00008L2.5 9C2.22386 9 2 8.77614 2 8.5V5.5C2 5.22386 2.22386 5 2.5 5L5.29137 5.00034C6.51441 3.63372 8.14888 2.64304 10.0001 2.223L10 1.5C10 1.22386 10.2239 1 10.5 1H13.5Z" fill="white"/>
</mask>
<g mask="url(#mask0_1264_1384)">
<path d="M-83.7937 92C-97.1271 92 -108.86 87.7333 -118.994 79.2C-128.594 70.1333 -133.394 56 -133.394 36.8C-133.394 17.6 -128.594 3.46666 -118.994 -5.60002C-108.86 -14.6667 -97.1271 -19.2 -83.7937 -19.2H130.606C143.94 -19.2 155.406 -14.6667 165.006 -5.60002C175.14 2.93332 180.206 16.8 180.206 36C180.206 55.2 175.14 69.3333 165.006 78.4C155.406 87.4667 143.94 92 130.606 92H-83.7937Z" fill="#826C00"/>
</g>
</svg>
