<svg width="24" height="24" viewBox="0 0 24 24" fill="none" xmlns="http://www.w3.org/2000/svg">
<mask id="mask0_1237_27135" style="mask-type:alpha" maskUnits="userSpaceOnUse" x="3" y="3" width="18" height="19">
<path fill-rule="evenodd" clip-rule="evenodd" d="M4.77524 4.60359L3 6.37883L11.4078 10.3997L7.58129 14.2252L5.43074 13.5211C5.0606 13.4002 4.65427 13.4974 4.37821 13.7734L3.09719 15.0544L6.6549 17.3446L8.94606 20.9033L10.2271 19.6213C10.5031 19.3462 10.6003 18.9389 10.4794 18.5687L9.77527 16.4182L13.6008 12.5927L17.6217 21.0005L19.3969 19.2253C19.6564 18.9668 19.7588 18.5894 19.6668 18.2348L17.2557 8.93674L20.5456 5.64785C21.1515 5.04197 21.1515 4.05975 20.5456 3.45388C19.9397 2.84903 18.9585 2.84903 18.3527 3.45388L15.0627 6.7438L5.76573 4.33374C5.4111 4.24172 5.03372 4.34511 4.77524 4.60359Z" fill="white"/>
</mask>
<g mask="url(#mask0_1237_27135)">
<path d="M-83.7937 92C-97.1271 92 -108.86 87.7333 -118.994 79.2C-128.594 70.1333 -133.394 56 -133.394 36.8C-133.394 17.6 -128.594 3.46666 -118.994 -5.60002C-108.86 -14.6667 -97.1271 -19.2 -83.7937 -19.2H130.606C143.94 -19.2 155.406 -14.6667 165.006 -5.60002C175.14 2.93332 180.206 16.8 180.206 36C180.206 55.2 175.14 69.3333 165.006 78.4C155.406 87.4667 143.94 92 130.606 92H-83.7937Z" fill="white"/>
</g>
</svg>
