<svg width="24" height="24" viewBox="0 0 24 24" fill="none" xmlns="http://www.w3.org/2000/svg">
<mask id="mask0_1237_27131" style="mask-type:alpha" maskUnits="userSpaceOnUse" x="2" y="2" width="20" height="20">
<path fill-rule="evenodd" clip-rule="evenodd" d="M5 10V22H2V11C2 10.4872 2.38604 10.0645 2.88338 10.0067L3 10H5ZM7 2.18048C7.05508 2.18048 7.11007 2.18503 7.1644 2.19409L17.1644 3.86075C17.6466 3.94112 18 4.35831 18 4.84715V10.9995L21 11C21.5523 11 22 11.4477 22 12V22H14V17C14 16.4872 13.614 16.0645 13.1166 16.0067L13 16H11C10.4872 16 10.0645 16.3861 10.0067 16.8834L10 17V22H6V3.18048C6 2.6282 6.44772 2.18048 7 2.18048ZM21 17H18V18H21V17ZM21 14H18V15H21V14ZM15.5 10H13V12.5H14.0106V11H15.5V10ZM11.5 10H9V12.5H10.0106V11H11.5V10ZM15.5 6.00002H13V8.50002H14.0106V7.00002H15.5V6.00002ZM11.5 6.00002H9V8.50002H10.0106V7.00002H11.5V6.00002Z" fill="white"/>
</mask>
<g mask="url(#mask0_1237_27131)">
<path d="M-83.7937 92C-97.1271 92 -108.86 87.7333 -118.994 79.2C-128.594 70.1333 -133.394 56 -133.394 36.8C-133.394 17.6 -128.594 3.46666 -118.994 -5.60002C-108.86 -14.6667 -97.1271 -19.2 -83.7937 -19.2H130.606C143.94 -19.2 155.406 -14.6667 165.006 -5.60002C175.14 2.93332 180.206 16.8 180.206 36C180.206 55.2 175.14 69.3333 165.006 78.4C155.406 87.4667 143.94 92 130.606 92H-83.7937Z" fill="white"/>
</g>
</svg>
