<svg width="24" height="24" viewBox="0 0 24 24" fill="none" xmlns="http://www.w3.org/2000/svg">
<mask id="mask0_1264_3731" style="mask-type:alpha" maskUnits="userSpaceOnUse" x="2" y="2" width="20" height="20">
<path fill-rule="evenodd" clip-rule="evenodd" d="M5 9.99996V22H2V11C2 10.4871 2.38604 10.0645 2.88338 10.0067L3 9.99996H5ZM7 2.18042C7.05508 2.18042 7.11007 2.18497 7.1644 2.19403L17.1644 3.86069C17.6466 3.94106 18 4.35825 18 4.84709V10.9994L21 11C21.5523 11 22 11.4477 22 12V22H14V17C14 16.4871 13.614 16.0645 13.1166 16.0067L13 16H11C10.4872 16 10.0645 16.386 10.0067 16.8833L10 17V22H6V3.18042C6 2.62814 6.44772 2.18042 7 2.18042ZM21 17H18V18H21V17ZM21 14H18V15H21V14ZM15.5 9.99996H13V12.5H14.0106V11H15.5V9.99996ZM11.5 9.99996H9V12.5H10.0106V11H11.5V9.99996ZM15.5 5.99996H13V8.49996H14.0106V6.99996H15.5V5.99996ZM11.5 5.99996H9V8.49996H10.0106V6.99996H11.5V5.99996Z" fill="white"/>
</mask>
<g mask="url(#mask0_1264_3731)">
<path d="M-83.7937 92C-97.1271 92 -108.86 87.7333 -118.994 79.2C-128.594 70.1333 -133.394 56 -133.394 36.8C-133.394 17.6 -128.594 3.46666 -118.994 -5.60002C-108.86 -14.6667 -97.1271 -19.2 -83.7937 -19.2H130.606C143.94 -19.2 155.406 -14.6667 165.006 -5.60002C175.14 2.93332 180.206 16.8 180.206 36C180.206 55.2 175.14 69.3333 165.006 78.4C155.406 87.4667 143.94 92 130.606 92H-83.7937Z" fill="#C53829"/>
</g>
</svg>
