<svg width="16" height="16" viewBox="0 0 16 16" fill="none" xmlns="http://www.w3.org/2000/svg">
<mask id="mask0_1218_1153" style="mask-type:alpha" maskUnits="userSpaceOnUse" x="1" y="0" width="14" height="16">
<path d="M3.66686 8.66666C4.95541 8.66666 6.00004 9.72939 6.00004 11.0403C6.00004 11.4763 5.88458 11.885 5.68297 12.2358L3.94623 14.9041C3.8458 15.0584 3.63931 15.1021 3.48502 15.0016C3.44607 14.9763 3.41285 14.9431 3.38749 14.9041L1.65075 12.2358C1.44914 11.885 1.33337 11.4763 1.33337 11.0403C1.33337 9.72939 2.378 8.66666 3.66686 8.66666ZM8.66671 1.33332V2.66666H4.41425C4.23016 2.66666 4.08092 2.81589 4.08092 2.99999C4.08092 3.07071 4.1034 3.13912 4.14439 3.19566L4.17855 3.23569L12.7643 11.8215C13.4152 12.4724 13.4152 13.5276 12.7643 14.1785C12.483 14.4598 12.1115 14.6302 11.7178 14.6614L11.5858 14.6667H6.33337V13.3333H11.5858C11.6742 13.3333 11.759 13.2982 11.8215 13.2357C11.9372 13.12 11.9501 12.9404 11.8601 12.8105L11.8215 12.7643L3.23574 4.1785C2.92318 3.86594 2.74759 3.44202 2.74759 2.99999C2.74759 2.11633 3.43528 1.3933 4.30467 1.33687L4.41425 1.33332H8.66671ZM3.66671 9.83332C3.02238 9.83332 2.50004 10.3557 2.50004 11C2.50004 11.6443 3.02238 12.1667 3.66671 12.1667C4.31104 12.1667 4.83337 11.6443 4.83337 11C4.83337 10.3557 4.31104 9.83332 3.66671 9.83332ZM12.3335 0.666656C13.6221 0.666656 14.6667 1.72939 14.6667 3.04027C14.6667 3.47631 14.5512 3.88498 14.3496 4.23584L12.6129 6.90411C12.5125 7.0584 12.306 7.10207 12.1517 7.00164C12.1127 6.97629 12.0795 6.94307 12.0542 6.90411L10.3174 4.23584C10.1158 3.88498 10 3.47631 10 3.04027C10 1.72939 11.0447 0.666656 12.3335 0.666656ZM12.3334 1.83332C11.689 1.83332 11.1667 2.35566 11.1667 2.99999C11.1667 3.64432 11.689 4.16666 12.3334 4.16666C12.9777 4.16666 13.5 3.64432 13.5 2.99999C13.5 2.35566 12.9777 1.83332 12.3334 1.83332Z" fill="white"/>
</mask>
<g mask="url(#mask0_1218_1153)">
<path d="M-87.7937 88.0488C-101.127 88.0488 -112.86 83.7822 -122.994 75.2488C-132.594 66.1822 -137.394 52.0488 -137.394 32.8488C-137.394 13.6488 -132.594 -0.484512 -122.994 -9.55119C-112.86 -18.6179 -101.127 -23.1512 -87.7937 -23.1512H126.606C139.94 -23.1512 151.406 -18.6179 161.006 -9.55119C171.14 -1.01785 176.206 12.8488 176.206 32.0488C176.206 51.2488 171.14 65.3822 161.006 74.4488C151.406 83.5155 139.94 88.0488 126.606 88.0488H-87.7937Z" fill="#24262C"/>
</g>
</svg>
