<svg width="14" height="14" viewBox="0 0 14 14" fill="none" xmlns="http://www.w3.org/2000/svg">
<mask id="mask0_1264_1810" style="mask-type:alpha" maskUnits="userSpaceOnUse" x="2" y="0" width="10" height="14">
<path fill-rule="evenodd" clip-rule="evenodd" d="M7.00034 0.583313C9.57745 0.583313 11.6667 2.70877 11.6667 5.33055C11.6667 6.20262 11.4358 7.01997 11.0326 7.72169L7.48924 13.1655C7.31349 13.4355 6.95214 13.512 6.68213 13.3362C6.61396 13.2918 6.55582 13.2337 6.51145 13.1655L2.96813 7.72169C2.56491 7.01997 2.33337 6.20262 2.33337 5.33055C2.33337 2.70877 4.42263 0.583313 7.00034 0.583313ZM7.00004 2.91665C5.87246 2.91665 4.95837 3.83073 4.95837 4.95831C4.95837 6.08589 5.87246 6.99998 7.00004 6.99998C8.12762 6.99998 9.04171 6.08589 9.04171 4.95831C9.04171 3.83073 8.12762 2.91665 7.00004 2.91665Z" fill="white"/>
</mask>
<g mask="url(#mask0_1264_1810)">
<path d="M-88.7937 87.0488C-102.127 87.0488 -113.86 82.7822 -123.994 74.2488C-133.594 65.1822 -138.394 51.0488 -138.394 31.8488C-138.394 12.6488 -133.594 -1.48451 -123.994 -10.5512C-113.86 -19.6179 -102.127 -24.1512 -88.7937 -24.1512H125.606C138.94 -24.1512 150.406 -19.6179 160.006 -10.5512C170.14 -2.01785 175.206 11.8488 175.206 31.0488C175.206 50.2488 170.14 64.3822 160.006 73.4488C150.406 82.5155 138.94 87.0488 125.606 87.0488H-88.7937Z" fill="white"/>
</g>
</svg>
